<svg xmlns="http://www.w3.org/2000/svg" width="139" height="126" viewBox="0 0 139 126" fill="none"><style>.a{fill:#8EC9D2;}.b{fill:#2E334A;}</style><path d="M65.8 32.4C65.3 32 65 31.6 64.7 31.4 64.4 31.2 64 31.1 63.7 31.1 63.3 31.1 62.9 31.3 62.5 31.6 62.1 31.9 61.9 32.3 61.9 32.9V109H63.4V33.2C63.4 33.1 63.4 33 63.4 32.9 63.5 32.8 63.6 32.7 63.7 32.7 63.8 32.7 63.9 32.8 63.9 32.9 64.1 33 64.3 33.1 64.4 33.2L118.8 94.2V109H120.3V31.3H118.8V92L65.8 32.4ZM73.6 122H52C50.2 122 48.8 121.6 48 120.8 47.2 120 46.8 118.6 46.8 116.8V23.5C46.8 21.7 47.2 20.4 48 19.6 48.8 18.8 50.2 18.3 52 18.3H67C68.8 18.3 70.3 18.6 71.6 19.2 72.9 19.8 74.2 20.8 75.5 22.2L103.4 54.2V23.5C103.4 21.7 103.8 20.4 104.6 19.6 105.4 18.8 106.8 18.3 108.6 18.3H130.2C132 18.3 133.3 18.8 134.1 19.6 134.9 20.4 135.4 21.7 135.4 23.5V116.8C135.4 118.6 134.9 120 134.1 120.8 133.3 121.6 132 122 130.2 122H108.6C106.8 122 105.4 121.6 104.6 120.8 103.8 120 103.4 118.6 103.4 116.8V99.1L78.8 69.3V116.8C78.8 118.6 78.3 120 77.5 120.8 76.7 121.6 75.4 122 73.6 122Z" class="a"/><path d="M65.8 32.4L68.1 30.4 68 30.4 67.9 30.3 65.8 32.4ZM64.7 31.4L63 33.9 63 33.9 64.7 31.4ZM62.5 31.6L60.7 29.2 60.7 29.2 62.5 31.6ZM61.9 109H58.9V112H61.9V109ZM63.4 109V112H66.4V109H63.4ZM63.4 32.9L61.2 30.7 60.4 31.6V32.9H63.4ZM63.9 32.9L61.8 35 62.2 35.3 62.6 35.5 63.9 32.9ZM64.4 33.2L66.6 31.2 66.6 31.1 66.5 31 64.4 33.2ZM118.8 94.2H121.8V93.1L121 92.2 118.8 94.2ZM118.8 109H115.8V112H118.8V109ZM120.3 109V112H123.3V109H120.3ZM120.3 31.3H123.3V28.3H120.3V31.3ZM118.8 31.3V28.3H115.8V31.3H118.8ZM118.8 92L116.6 94 121.8 99.9V92H118.8ZM48 120.8L45.7 122.8 45.8 123 46 123.1 48 120.8ZM48 19.6L45.8 17.5 45.8 17.5 48 19.6ZM71.6 19.2L70.3 21.9 70.4 21.9 70.4 21.9 71.6 19.2ZM75.5 22.2L73.2 24.2 73.2 24.2 75.5 22.2ZM103.4 54.2L101.1 56.2 106.4 62.2V54.2H103.4ZM134.1 19.6L131.8 21.6 131.9 21.7 132.1 21.9 134.1 19.6ZM134.1 120.8L132 118.7 132 118.7 134.1 120.8ZM104.6 120.8L102.3 122.8 102.4 123 102.6 123.1 104.6 120.8ZM103.4 99.1H106.4V98L105.7 97.2 103.4 99.1ZM78.8 69.3L81.1 67.4 75.8 61V69.3H78.8ZM77.5 120.8L75.4 118.7 75.4 118.7 77.5 120.8ZM67.9 30.3C67.4 29.8 66.9 29.3 66.3 28.9L63 33.9C63 33.9 63.1 34 63.2 34.1 63.3 34.2 63.5 34.3 63.7 34.6L67.9 30.3ZM66.3 28.9C65.5 28.4 64.6 28.1 63.7 28.1V34.1C63.6 34.1 63.5 34.1 63.4 34.1 63.2 34.1 63.1 34 63 33.9L66.3 28.9ZM63.7 28.1C62.5 28.1 61.5 28.6 60.7 29.2L64.3 34C64.3 34 64.3 34 64.1 34.1 64 34.1 63.8 34.1 63.7 34.1V28.1ZM60.7 29.2C59.4 30.1 58.9 31.6 58.9 32.9H64.9C64.9 32.9 64.9 33.1 64.8 33.3 64.7 33.6 64.5 33.8 64.3 34L60.7 29.2ZM58.9 32.9V109H64.9V32.9H58.9ZM61.9 112H63.4V106H61.9V112ZM66.4 109V33.2H60.4V109H66.4ZM66.4 33.2C66.4 33.2 66.4 33.2 66.4 33.2 66.4 33.2 66.4 33.2 66.4 33.2 66.4 33.2 66.4 33.2 66.4 33.2 66.4 33.2 66.4 33.1 66.4 33.1 66.4 33.1 66.4 33.1 66.4 33.1 66.4 33.1 66.4 33.1 66.4 33.1 66.4 33.1 66.4 33.1 66.4 33.1 66.4 33.1 66.4 33.1 66.4 33.1 66.4 33.1 66.4 33.1 66.4 33.1 66.4 33.1 66.4 33.1 66.4 33.1 66.4 33.1 66.4 33.1 66.4 33.1 66.4 33.1 66.4 33.1 66.4 33.1 66.4 33.1 66.4 33.1 66.4 33.1 66.4 33.1 66.4 33.1 66.4 33.1 66.4 33.1 66.4 33.1 66.4 33.1 66.4 33.1 66.4 33.1 66.4 33.1 66.4 33.1 66.4 33.1 66.4 33.1 66.4 33.1 66.4 33.1 66.4 33.1 66.4 33.1 66.4 33.1 66.4 33.1 66.4 33.1 66.4 33.1 66.4 33.1 66.4 33.1 66.4 33.1 66.4 33.1 66.4 33.1 66.4 33.1 66.4 33.1 66.4 33.1 66.4 33.1 66.4 33.1 66.4 33.1 66.4 33.1 66.4 33.1 66.4 33.1 66.4 33.1 66.4 33.1 66.4 33.1 66.4 33.1 66.4 33.1 66.4 33.1 66.4 33.1 66.4 33.1 66.4 33.1 66.4 33.1 66.4 33.1 66.4 33.1 66.4 33.1 66.4 33.1 66.4 33.1 66.4 33.1 66.4 33.1 66.4 33.1 66.4 33.1 66.4 33.1 66.4 33.1 66.4 33.1 66.4 33.1 66.4 33.1 66.4 33.1 66.4 33.1 66.4 33.1 66.4 33.1 66.4 33.1 66.4 33.1 66.4 33.1 66.4 33.1 66.4 33.1 66.4 33.1 66.4 33.1 66.4 33.1 66.4 33.1 66.4 33.1 66.4 33.1 66.4 33.1 66.4 33.1 66.4 33.1 66.4 33.1 66.4 33.1 66.4 33.1 66.4 33.1 66.4 33.1 66.4 33.1 66.4 33.1 66.4 33.1 66.4 33.1 66.4 33.1 66.4 33.1 66.4 33.1 66.4 33.1 66.4 33.1 66.4 33.1 66.4 33.1 66.4 33.1 66.4 33.1 66.4 33.1 66.4 33.1 66.4 33.1 66.4 33.1 66.4 33.1 66.4 33.1 66.4 33.1 66.4 33.1 66.4 33.1 66.4 33.1 66.4 33.1 66.4 33.1 66.4 33.1 66.4 33.1 66.4 33.1 66.4 33.1 66.4 33.1 66.4 33.1 66.4 33.1 66.4 33.1 66.4 33.1 66.4 33.1 66.4 33.1 66.4 33.1 66.4 33.1 66.4 33.1 66.4 33.1 66.4 33.1 66.4 33.1 66.4 33.1 66.4 33.1 66.4 33.1 66.4 33.1 66.4 33.1 66.4 33.1 66.4 33.1 66.4 33.1 66.4 33.1 66.4 33.1 66.4 33.1 66.4 33.1 66.4 33.1 66.4 33.1 66.4 33.1 66.4 33.1 66.4 33.1 66.4 33.1 66.4 33.1 66.4 33.1 66.4 33.1 66.4 33.1 66.4 33.1 66.4 33.1 66.4 33.1 66.4 33.1 66.4 33.1 66.4 33.1 66.4 33.1 66.4 33.1 66.4 33.1 66.4 33.1 66.4 33.1 66.4 33.1 66.4 33.1 66.4 33.1 66.4 33.1 66.4 33.1 66.4 33.1 66.4 33.1 66.4 33.1 66.4 33.1 66.4 33.1 66.4 33.1 66.4 33.1 66.4 33.1 66.4 33.1 66.4 33.1 66.4 33.1 66.4 33.1 66.4 33.1 66.4 33.1 66.4 33.1 66.4 33.1 66.4 33.1 66.4 33.1 66.4 33.1 66.4 33.1 66.4 33.1 66.4 33.1 66.4 33.1 66.4 33.1 66.4 33.1 66.4 33.1 66.4 33.1 66.4 33.1 66.4 33.1 66.4 33.1 66.4 33.1 66.4 33.1 66.4 33.1 66.4 33.1 66.4 33.1 66.4 33.1 66.4 33.1 66.4 33.1 66.4 33.1 66.4 33.1 66.4 33.1 66.4 33.1 66.4 33.1 66.4 33.1 66.4 33.1 66.4 33.1 66.4 33.1 66.4 33.1 66.4 33.1 66.4 33.1 66.4 33.1 66.4 33.1 66.4 33.1 66.4 33.1 66.4 33.1 66.4 33.1 66.4 33.1 66.4 33.1 66.4 33.1 66.4 33.1 66.4 33.1 66.4 33.1 66.4 33.1 66.4 33.1 66.4 33.1 66.4 33.1 66.4 33.1 66.4 33.1 66.4 33.1 66.4 33.1 66.4 33.1 66.4 33.1 66.4 33.1 66.4 33.1 66.4 33.1 66.4 33.1 66.4 33.1 66.4 33.1 66.4 33.1 66.4 33.1 66.4 33.1 66.4 33.1 66.4 33.1 66.4 33.1 66.4 33.1 66.4 33.1 66.4 33.1 66.4 33.1 66.4 33.1 66.4 33.1 66.4 33.1 66.4 33.1 66.4 33.1 66.4 33.1 66.4 33.1 66.4 33.1 66.4 33.1 66.4 33.1 66.4 33.1 66.4 33.1 66.4 33.1 66.4 33.1 66.4 33.1 66.4 33.1 66.4 33.1 66.4 33.1 66.4 33.1 66.4 33.1 66.4 33.1 66.4 33.1 66.4 33.1 66.4 33.1 66.4 33.1 66.4 33.1 66.4 33.1 66.4 33.1 66.4 33.1 66.4 33.1 66.4 33.1 66.4 33.1 66.4 33.1 66.4 33.1 66.4 33.1 66.4 33.1 66.4 33.1 66.4 33.1 66.4 33.1 66.4 33.1 66.4 33.1 66.4 33.1 66.4 33.1 66.4 33.1 66.4 33.1 66.4 33.1 66.4 33.1 66.4 33.1 66.4 33.1 66.4 33.1 66.4 33.1 66.4 33.1 66.4 33.1 66.4 33.1 66.4 33.1 66.4 33.1 66.4 33.1 66.4 33.1 66.4 33.1 66.4 33.1 66.4 33.1 66.4 33.1 66.4 33.1 66.4 33.1 66.4 33.1 66.4 33.1 66.4 33.1 66.4 33.1 66.4 33.1 66.4 33.1 66.4 33.1 66.4 33.1 66.4 33.1 66.4 33.1 66.4 33.1 66.4 33.1 66.4 33.1 66.4 33.1 66.4 33.1 66.4 33.1 66.4 33.1 66.4 33.1 66.4 33.1 66.4 33.1 66.4 33.1 66.4 33.1 66.4 33.1 66.4 33.1 66.4 33.1 66.4 33.1 66.4 33.1 66.4 33.1 66.4 33.1 66.4 33.1 66.4 33.1 66.4 33.1 66.4 33.1 66.4 33.1 66.4 33.1 66.4 33.1 66.4 33.1 66.4 33.1 66.4 33.1 66.4 33.1 66.4 33.1 66.4 33.1 66.4 33.1 66.4 33.1 66.4 33.1 66.4 33.1 66.4 33.1 66.4 33.1 66.4 33.1 66.4 33.1 66.4 33.1 66.4 33.1 66.4 33.1 66.4 33.1 66.4 33.1 66.4 33.1 66.4 33.1 66.4 33.1 66.4 33.1 66.4 33.1 66.4 33.1 66.4 33.1 66.4 33.1 66.4 33.1 66.4 33.1 66.4 33.1 66.4 33.1 66.4 33.1 66.4 33.1 66.4 33.1 66.4 33.1 66.4 33.1 66.4 33.1 66.4 33.1 66.4 33.1 66.4 33.1 66.4 33.1 66.4 33.1 66.4 33.1 66.4 33.1 66.4 33.1 66.4 33.1 66.4 33.1 66.4 33.1 66.4 33.1 66.4 33.1 66.4 33.1 66.4 33.1 66.4 33.1 66.4 33.1 66.4 33.1 66.4 33.1 66.4 33.1 66.4 33.1 66.4 33.1 66.4 33.1 66.4 33.1 66.4 33.1 66.4 33.1 66.4 33.1 66.4 33.1 66.4 33.1 66.4 33.1 66.4 33.1 66.4 33.1 66.4 33.1 66.4 33.1 66.4 33.1 66.4 33.1 66.4 33.1 66.4 33.1 66.4 33.1 66.4 33.1 66.4 33.1 66.4 33.1 66.4 33.1 66.4 33.1 66.4 33.1 66.4 33.1 66.4 33.1 66.4 33.1 66.4 33.1 66.4 33.1 66.4 33.1 66.4 33.1 66.4 33.1 66.4 33.1 66.4 33.1 66.4 33.1 66.4 33.1 66.4 33.1 66.4 33.1 66.4 33.1 66.4 33.1 66.4 33.1 66.4 33.1 66.4 33.1 66.4 33.1 66.4 33.1 66.4 33.1 66.4 33.1 66.4 33.1 66.4 33.1 66.4 33.1 66.4 33.1 66.4 33.1 66.4 33.1 66.4 33.1 66.4 33.1 66.4 33.1 66.4 33.1 66.4 33.1 66.4 33.1 66.4 33.1 66.4 33.1 66.4 33.1 66.4 33.1 66.4 33.1 66.4 33.1 66.4 33.1 66.4 33.1 66.4 33.1 66.4 33.1 66.4 33.1 66.4 33.1 66.4 33.1 66.4 33.1 66.4 33.1 66.4 33.1 66.4 33.1 66.4 33.1 66.4 33.1 66.4 33.1 66.4 33.1 66.4 33.1 66.4 33.1 66.4 33.1 66.4 33.1 66.4 33.1 66.4 33.1 66.4 33.1 66.4 33.1 66.4 33.1 66.4 33.1 66.4 33.1 66.4 33.1 66.4 33.1 66.4 33.1 66.4 33.1 66.4 33.1 66.4 33.1 66.4 33.1 66.4 33 66.4 33 66.4 33 66.4 33 66.4 33 66.4 33 66.4 33 66.4 33 66.4 33 66.4 33 66.4 33 66.4 33 66.4 33 66.4 33 66.4 33 66.4 33 66.4 33 66.4 33 66.4 33 66.4 33 66.4 33 66.4 33 66.4 33 66.4 33 66.4 33 66.4 33 66.4 33 66.4 33 66.4 33 66.4 33 66.4 33 66.4 33 66.4 33 66.4 33 66.4 33 66.4 33 66.4 33 66.4 33 66.4 33 66.4 33 66.4 33 66.4 33 66.4 33 66.4 33 66.4 33 66.4 33 66.4 33 66.4 33 66.4 33 66.4 33 66.4 33 66.4 33 66.4 33 66.4 33 66.4 33 66.4 33 66.4 33 66.4 33 66.4 33 66.4 33 66.4 33 66.4 33 66.4 33 66.4 33 66.4 33 66.4 33 66.4 33 66.4 33 66.4 33 66.4 33 66.4 33 66.4 33 66.4 33 66.4 33 66.4 33 66.4 33 66.4 33 66.4 33 66.4 33 66.4 33 66.4 33 66.4 33 66.4 33 66.4 33 66.4 33 66.4 33 66.4 33 66.4 33 66.4 33 66.4 33 66.4 33 66.4 33 66.4 33 66.4 33 66.4 33 66.4 33 66.4 33 66.4 33 66.4 33 66.4 33 66.4 33 66.4 33 66.4 33 66.4 33 66.4 33 66.4 33 66.4 33 66.4 33 66.4 33 66.4 33 66.4 33 66.4 33 66.4 33 66.4 33 66.4 33 66.4 33 66.4 33 66.4 33 66.4 33 66.4 33 66.4 33 66.4 33 66.4 33 66.4 33 66.4 33 66.4 33 66.4 33 66.4 33 66.4 33 66.4 33 66.4 33 66.4 33 66.4 33 66.4 33 66.4 33 66.4 33 66.4 33 66.4 33 66.4 33 66.4 33 66.4 33 66.4 33 66.4 33 66.4 33 66.4 33 66.4 33 66.4 33 66.4 33 66.4 33 66.4 33 66.4 33 66.4 33 66.4 33 66.4 33 66.4 33 66.4 33 66.4 33 66.4 33 66.4 33 66.4 33 66.4 33 66.4 33 66.4 33 66.4 33 66.4 33 66.4 33 66.4 33 66.4 33 66.4 33 66.4 33 66.4 33 66.4 33 66.4 33 66.4 33 66.4 33 66.4 33 66.4 33 66.4 33 66.4 33 66.4 33 66.4 33 66.4 33 66.4 33 66.4 33 66.4 33 66.4 33 66.4 33 66.4 33 66.4 33 66.4 33 66.4 33 66.4 33 66.4 33 66.4 33 66.4 33 66.4 33 66.4 33 66.4 33 66.4 33 66.4 33 66.4 33 66.4 33 66.4 33 66.4 33 66.4 33 66.4 33 66.4 33 66.4 33 66.4 33 66.4 33 66.4 33 66.4 33 66.4 33 66.4 33 66.4 33 66.4 33 66.4 33 66.4 33 66.4 33 66.4 33 66.4 33 66.4 33 66.4 33 66.4 33 66.4 33 66.4 33 66.4 33 66.4 33 66.4 33 66.4 33 66.4 33 66.4 33 66.4 33 66.4 33 66.4 33 66.4 33 66.4 33 66.4 33 66.4 33 66.4 33 66.4 33 66.4 33 66.4 33 66.4 33 66.4 33 66.4 33 66.4 33 66.4 33 66.4 33 66.4 33 66.4 33 66.4 33 66.4 33 66.4 33 66.4 33 66.4 33 66.4 33 66.4 33 66.4 33 66.4 33 66.4 33 66.4 33 66.4 33 66.4 33 66.4 33 66.4 33 66.4 33 66.4 33 66.4 33 66.4 33 66.4 33 66.4 33 66.4 33 66.4 33 66.4 33 66.4 33 66.4 33 66.4 33 66.4 33 66.4 33 66.4 33 66.4 33 66.4 33 66.4 33 66.4 33 66.4 33 66.4 33 66.4 33 66.4 33 66.4 33 66.4 33 66.4 33 66.4 33 66.4 33 66.4 33 66.4 33 66.4 33 66.4 33 66.4 33 66.4 33 66.4 33 66.4 33 66.4 33 66.4 33 66.4 33 66.4 33 66.4 33 66.4 33 66.4 33 66.4 33 66.4 33 66.4 33 66.4 33 66.4 33 66.4 33 66.4 33 66.4 33 66.4 33 66.4 33 66.4 33 66.4 33 66.4 33 66.4 33 66.4 33 66.4 33 66.4 33 66.4 33 66.4 33 66.4 33 66.4 33 66.4 33 66.4 33 66.4 33 66.4 33 66.4 33 66.4 33 66.4 33 66.4 33 66.4 33 66.4 33 66.4 33 66.4 33 66.4 33 66.4 33 66.4 33 66.4 33 66.4 33 66.4 33 66.4 33 66.4 33 66.4 33 66.4 33 66.4 33 66.4 33 66.4 33 66.4 33 66.4 33 66.4 33 66.4 33 66.4 33 66.4 33 66.4 33 66.4 33 66.4 33 66.4 33 66.4 33 66.4 33 66.4 33 66.4 33 66.4 33 66.4 33 66.4 33 66.4 33 66.4 33 66.4 33 66.4 33 66.4 33 66.4 33 66.4 33 66.4 33 66.4 33 66.4 33 66.4 33 66.4 33 66.4 33 66.4 33 66.4 33 66.4 33 66.4 33 66.4 33 66.4 33 66.4 33 66.4 33 66.4 33 66.4 33 66.4 33 66.4 33 66.4 33 66.4 33 66.4 33 66.4 33 66.4 33 66.4 33 66.4 33 66.4 33 66.4 33 66.4 33 66.4 33 66.4 33 66.4 33 66.4 33 66.4 33 66.4 33 66.4 33 66.4 33 66.4 33 66.4 33 66.4 33 66.4 33 66.4 33 66.4 33 66.4 33 66.4 33 66.4 33 66.4 33 66.4 33 66.4 33 66.4 33 66.4 33 66.4 33 66.4 33 66.4 33 66.4 33 66.4 33 66.4 33 66.4 33 66.4 33 66.4 33 66.4 33 66.4 33 66.4 33 66.4 33 66.4 33 66.4 33 66.4 33 66.4 33 66.4 33 66.4 33 66.4 33 66.4 33 66.4 33 66.4 33 66.4 33 66.4 33 66.4 33 66.4 33 66.4 33 66.4 33 66.4 33 66.4 33 66.4 33 66.4 33 66.4 33 66.4 33 66.4 33 66.4 33 66.4 33 66.4 33 66.4 33 66.4 33 66.4 33 66.4 33 66.4 33 66.4 33 66.4 33 66.4 33 66.4 33 66.4 33 66.4 33 66.4 33 66.4 33 66.4 33 66.4 33 66.4 33 66.4 33 66.4 33 66.4 33 66.4 33 66.4 33 66.4 33 66.4 33 66.4 33 66.4 33 66.4 33 66.4 33 66.4 33 66.4 33 66.4 33 66.4 33 66.4 33 66.4 33 66.4 33 66.4 33 66.4 33 66.4 33 66.4 33 66.4 33 66.4 33 66.4 33 66.4 33 66.4 33 66.4 33 66.4 33 66.4 33 66.4 33 66.4 33 66.4 33 66.4 33 66.4 33 66.4 33 66.4 33 66.4 33 66.4 33 66.4 33 66.4 33 66.4 33 66.4 33 66.4 33 66.4 33 66.4 33 66.4 33 66.4 33 66.4 33 66.4 32.9 66.4 32.9 66.4 32.9 66.4 32.9 66.4 32.9 66.4 32.9 66.4 32.9 66.4 32.9 66.4 32.9 66.4 32.9 66.4 32.9 66.4 32.9 66.4 32.9 66.4 32.9 66.4 32.9 66.4 32.9 66.4 32.9 66.4 32.9 66.4 32.9 66.4 32.9 66.4 32.9 66.4 32.9 66.4 32.9 66.4 32.9 66.4 32.9 66.4 32.9 66.4 32.9 66.4 32.9 66.4 32.9 66.4 32.9 66.4 32.9 66.4 32.9 66.4 32.9 66.4 32.9 66.4 32.9 66.4 32.9 66.4 32.9 66.4 32.9 66.4 32.9 66.4 32.9 66.4 32.9 66.4 32.9 66.4 32.9 66.4 32.9 66.4 32.9 66.4 32.9 66.4 32.9 66.4 32.9 66.4 32.9 66.4 32.9 66.4 32.9 66.4 32.9 66.4 32.9 66.4 32.9 66.4 32.9 66.4 32.9 66.4 32.9 66.4 32.9 66.4 32.9 66.4 32.9 66.4 32.9 66.4 32.9 66.4 32.9 66.4 32.9 66.4 32.9 66.4 32.9 66.4 32.9 66.4 32.9 66.4 32.9 66.4 32.9 66.4 32.9 66.4 32.9 66.4 32.9 66.4 32.9 66.4 32.9 66.4 32.9 66.4 32.9 66.4 32.9 66.4 32.9 66.4 32.9 66.4 32.9 66.4 32.9 66.4 32.9 66.4 32.9 66.4 32.9 66.4 32.9 66.4 32.9 66.4 32.9 66.4 32.9 66.4 32.9 66.4 32.9 66.4 32.9 66.4 32.9 66.4 32.9 66.4 32.9 66.4 32.9 66.4 32.9 66.4 32.9 66.4 32.9 66.4 32.9 66.4 32.9 66.4 32.9 66.4 32.9 66.4 32.9 66.4 32.9 66.4 32.9 66.4 32.9 66.4 32.9 66.4 32.9 66.4 32.9 66.4 32.9 66.4 32.9 66.4 32.9 66.4 32.9 66.4 32.9 66.4 32.9 66.4 32.9 66.4 32.9 66.4 32.9 66.4 32.9 66.4 32.9 66.4 32.9 66.4 32.9 66.4 32.9 66.4 32.9 66.4 32.9 66.4 32.9 66.4 32.9 66.4 32.9 66.4 32.9 66.4 32.9 66.4 32.9 66.4 32.9 66.4 32.9 66.4 32.9 66.4 32.9 66.4 32.9 66.4 32.9 66.4 32.9 66.4 32.9 66.4 32.9 66.4 32.9 66.4 32.9 66.4 32.9 66.4 32.9 66.4 32.9 66.4 32.9 66.4 32.9 66.4 32.9 66.4 32.9 66.4 32.9 66.4 32.9 66.4 32.9 66.4 32.9 66.4 32.9 66.4 32.9 66.4 32.9 66.4 32.9 66.4 32.9 66.4 32.9 66.4 32.9 66.4 32.9 66.4 32.9 66.4 32.9 66.4 32.9 66.4 32.9 66.4 32.9 66.4 32.9 66.4 32.9 66.4 32.9 66.4 32.9 66.4 32.9 66.4 32.9 66.4 32.9 66.4 32.9 66.4 32.9 66.4 32.9 66.4 32.9 66.4 32.9 66.4 32.9 66.4 32.9 66.4 32.9 66.4 32.9 66.4 32.9 66.4 32.9 66.4 32.9 66.4 32.9 66.4 32.9 66.4 32.9 66.4 32.9 66.4 32.9 66.4 32.9 66.4 32.9 66.4 32.9 66.4 32.9 66.4 32.9 66.4 32.9 66.4 32.9 66.4 32.9 66.4 32.9 66.4 32.9 66.4 32.9 66.4 32.9 66.4 32.9 66.4 32.9 66.4 32.9 66.4 32.9 66.4 32.9 66.4 32.9 66.4 32.9 66.4 32.9 66.4 32.9 66.4 32.9 66.4 32.9 66.4 32.9 66.4 32.9 66.4 32.9 66.4 32.9 66.4 32.9 66.4 32.9 66.4 32.9 66.4 32.9 66.4 32.9 66.4 32.9 66.4 32.9 66.4 32.9 66.4 32.9 66.4 32.9 66.4 32.9 66.4 32.9 66.4 32.9 66.4 32.9 66.4 32.9 66.4 32.9 66.4 32.9 66.4 32.9 66.4 32.9 66.4 32.9 66.4 32.9 66.4 32.9 66.4 32.9 66.4 32.9 66.4 32.9 66.4 32.9 66.4 32.9 66.4 32.9 66.4 32.9 66.4 32.9 66.4 32.9 66.4 32.9 66.4 32.9 66.4 32.9 66.4 32.9 66.4 32.9 66.4 32.9 66.4 32.9 66.4 32.9 66.4 32.9 66.4 32.9 66.4 32.9 66.4 32.9 66.4 32.9 66.4 32.9 66.4 32.9 66.4 32.9 66.4 32.9 66.4 32.9 66.4 32.9 66.4 32.9 66.4 32.9 66.4 32.9 66.4 32.9 66.4 32.9 66.4 32.9 66.4 32.9 66.4 32.9 66.4 32.9 66.4 32.9 66.4 32.9 66.4 32.9 66.4 32.9 66.4 32.9 66.4 32.9 66.4 32.9 66.4 32.9 66.4 32.9 66.4 32.9 66.4 32.9 66.4 32.9 66.4 32.9 66.4 32.9 66.4 32.9 66.4 32.9 66.4 32.9 66.4 32.9 66.4 32.9 66.4 32.9 66.4 32.9 66.4 32.9 66.4 32.9 66.4 32.9 66.4 32.9 66.4 32.9 66.4 32.9 66.4 32.9 66.4 32.9 66.4 32.9 66.4 32.9 66.4 32.9 66.4 32.9 66.4 32.9 66.4 32.9 66.4 32.9 66.4 32.9 66.4 32.9 66.4 32.9 66.4 32.9 66.4 32.9 66.4 32.9 66.4 32.9 66.4 32.9 66.4 32.9 66.4 32.9 66.4 32.9 66.4 32.9 66.4 32.9 66.4 32.9 66.4 32.9 66.4 32.9 66.4 32.9 66.4 32.9 66.4 32.9 66.4 32.9 66.4 32.9 66.4 32.9 66.4 32.9 66.4 32.9 66.4 32.9 66.4 32.9 66.4 32.9 66.4 32.9 66.4 32.9 66.4 32.9 66.4 32.9 66.4 32.9 66.4 32.9 66.4 32.9 66.4 32.9 66.4 32.9 66.4 32.9 66.4 32.9 66.4 32.9 66.4 32.9 66.4 32.9 66.4 32.9 66.4 32.9 66.4 32.9 66.4 32.9 66.4 32.9 66.4 32.9 66.4 32.9 66.4 32.9 66.4 32.9 66.4 32.9 66.4 32.9 66.4 32.9 66.4 32.9 66.4 32.9 66.4 32.9 66.4 32.9 66.4 32.9 66.4 32.9 66.4 32.9 66.4 32.9 66.4 32.9 66.4 32.9 66.4 32.9 66.4 32.9 66.4 32.9 66.4 32.9 66.4 32.9 66.4 32.9 66.4 32.9 66.4 32.9 66.4 32.9 66.4 32.9 66.4 32.9 66.4 32.9 66.4 32.9 66.4 32.9 66.4 32.9 66.4 32.9 66.4 32.9 66.4 32.9 66.4 32.9 66.4 32.9 66.4 32.9 66.4 32.9 66.4 32.9 66.4 32.9 66.4 32.9 66.4 32.9 66.4 32.9 66.4 32.9 66.4 32.9 66.4 32.9 66.4 32.9 66.4 32.9 66.4 32.9 66.4 32.9 66.4 32.9 66.4 32.9 66.4 32.9 66.4 32.9 66.4 32.9 66.4 32.9 66.4 32.9 66.4 32.9 66.4 32.9 66.4 32.9 66.4 32.9 66.4 32.9 66.4 32.9 66.4 32.9 66.4 32.9 66.4 32.9 66.4 32.9 66.4 32.9 66.4 32.9 66.4 32.9 66.4 32.9 66.4 32.9 66.4 32.9 66.4 32.9 66.4 32.9 66.4 32.9 66.4 32.9 66.4 32.9 66.4 32.9 66.4 32.9 66.4 32.9 66.4 32.9 66.4 32.9 66.4 32.9 66.4 32.9 66.4 32.9 66.4 32.9 66.4 32.9 66.4 32.9 66.4 32.9 66.4 32.9 66.4 32.9 66.4 32.9 66.4 32.9 66.4 32.9 66.4 32.9 66.4 32.9 66.4 32.9 66.4 32.9H60.4C60.4 32.9 60.4 32.9 60.4 32.9 60.4 32.9 60.4 32.9 60.4 32.9 60.4 32.9 60.4 32.9 60.4 32.9 60.4 32.9 60.4 32.9 60.4 32.9 60.4 32.9 60.4 32.9 60.4 32.9 60.4 32.9 60.4 32.9 60.4 32.9 60.4 32.9 60.4 32.9 60.4 32.9 60.4 32.9 60.4 32.9 60.4 32.9 60.4 32.9 60.4 32.9 60.4 32.9 60.4 32.9 60.4 32.9 60.4 32.9 60.4 32.9 60.4 32.9 60.4 32.9 60.4 32.9 60.4 32.9 60.4 32.9 60.4 32.9 60.4 32.9 60.4 32.9 60.4 32.9 60.4 32.9 60.4 32.9 60.4 32.9 60.4 32.9 60.4 32.9 60.4 32.9 60.4 32.9 60.4 32.9 60.4 32.9 60.4 32.9 60.4 32.9 60.4 32.9 60.4 32.9 60.4 32.9 60.4 32.9 60.4 32.9 60.4 32.9 60.4 32.9 60.4 32.9 60.4 32.9 60.4 32.9 60.4 32.9 60.4 32.9 60.4 32.9 60.4 32.9 60.4 32.9 60.4 32.9 60.4 32.9 60.4 32.9 60.4 32.9 60.4 32.9 60.4 32.9 60.4 32.9 60.4 32.9 60.4 32.9 60.4 32.9 60.4 32.9 60.4 32.9 60.4 32.9 60.4 32.9 60.4 32.9 60.4 32.9 60.4 32.9 60.4 32.9 60.4 32.9 60.4 32.9 60.4 32.9 60.4 32.9 60.4 32.9 60.4 32.9 60.4 32.9 60.4 32.9 60.4 32.9 60.4 32.9 60.4 32.9 60.4 32.9 60.4 32.9 60.4 32.9 60.4 32.9 60.4 32.9 60.4 32.9 60.4 32.9 60.4 32.9 60.4 32.9 60.4 32.9 60.4 32.9 60.4 32.9 60.4 32.9 60.4 32.9 60.4 32.9 60.4 32.9 60.4 32.9 60.4 32.9 60.4 32.9 60.4 32.9 60.4 32.9 60.4 32.9 60.4 32.9 60.4 32.9 60.4 32.9 60.4 32.9 60.4 32.9 60.4 32.9 60.4 32.9 60.4 32.9 60.4 32.9 60.4 32.9 60.4 32.9 60.4 32.9 60.4 32.9 60.4 32.9 60.4 32.9 60.4 32.9 60.4 32.9 60.4 32.9 60.4 32.9 60.4 32.9 60.4 32.9 60.4 32.9 60.4 32.9 60.4 32.9 60.4 32.9 60.4 32.9 60.4 32.9 60.4 32.9 60.4 32.9 60.4 32.9 60.4 32.9 60.4 32.9 60.4 32.9 60.4 32.9 60.4 32.9 60.4 32.9 60.4 32.9 60.4 32.9 60.4 32.9 60.4 32.9 60.4 32.9 60.4 32.9 60.4 32.9 60.4 32.9 60.4 32.9 60.4 32.9 60.4 32.9 60.4 32.9 60.4 32.9 60.4 32.9 60.4 32.9 60.4 32.9 60.4 32.9 60.4 32.9 60.4 32.9 60.4 32.9 60.4 32.9 60.4 32.9 60.4 32.9 60.4 32.9 60.4 32.9 60.4 32.9 60.4 32.9 60.4 32.9 60.4 32.9 60.4 32.9 60.4 32.9 60.4 32.9 60.4 32.9 60.4 32.9 60.4 32.9 60.4 32.9 60.4 32.9 60.4 32.9 60.4 32.9 60.4 32.9 60.4 32.9 60.4 32.9 60.4 32.9 60.4 32.9 60.4 32.9 60.4 32.9 60.4 32.9 60.4 32.9 60.4 32.9 60.4 32.9 60.4 32.9 60.4 32.9 60.4 32.9 60.4 32.9 60.4 32.9 60.4 32.9 60.4 32.9 60.4 32.9 60.4 32.9 60.4 32.9 60.4 32.9 60.4 32.9 60.4 32.9 60.4 32.9 60.4 32.9 60.4 32.9 60.4 32.9 60.4 32.9 60.4 32.9 60.4 32.9 60.4 32.9 60.4 32.9 60.4 32.9 60.4 32.9 60.4 32.9 60.4 32.9 60.4 32.9 60.4 32.9 60.4 32.9 60.4 32.9 60.4 32.9 60.4 32.9 60.4 32.9 60.4 32.9 60.4 32.9 60.4 32.9 60.4 32.9 60.4 32.9 60.4 32.9 60.4 32.9 60.4 32.9 60.4 32.9 60.4 32.9 60.4 32.9 60.4 32.9 60.4 32.9 60.4 32.9 60.4 32.9 60.4 32.9 60.4 32.9 60.4 32.9 60.4 32.9 60.4 32.9 60.4 32.9 60.4 32.9 60.4 32.9 60.4 32.9 60.4 32.9 60.4 32.9 60.4 32.9 60.4 32.9 60.4 32.9 60.4 32.9 60.4 32.9 60.4 32.9 60.4 32.9 60.4 32.9 60.4 32.9 60.4 32.9 60.4 32.9 60.4 32.9 60.4 32.9 60.4 32.9 60.4 32.9 60.4 32.9 60.4 32.9 60.4 32.9 60.4 32.9 60.4 32.9 60.4 32.9 60.4 32.9 60.4 32.9 60.4 32.9 60.4 32.9 60.4 32.9 60.4 32.9 60.4 32.9 60.4 32.9 60.4 32.9 60.4 32.9 60.4 32.9 60.4 32.9 60.4 32.9 60.4 32.9 60.4 32.9 60.4 32.9 60.4 32.9 60.4 32.9 60.4 32.9 60.4 32.9 60.4 32.9 60.4 32.9 60.4 32.9 60.4 32.9 60.4 32.9 60.4 32.9 60.4 32.9 60.4 32.9 60.4 32.9 60.4 32.9 60.4 32.9 60.4 32.9 60.4 32.9 60.4 32.9 60.4 32.9 60.4 32.9 60.4 32.9 60.4 32.9 60.4 32.9 60.4 32.9 60.4 32.9 60.4 32.9 60.4 32.9 60.4 32.9 60.4 32.9 60.4 32.9 60.4 32.9 60.4 32.9 60.4 32.9 60.4 32.9 60.4 32.9 60.4 32.9 60.4 32.9 60.4 32.9 60.4 32.9 60.4 32.9 60.4 32.9 60.4 32.9 60.4 32.9 60.4 32.9 60.4 32.9 60.4 32.9 60.4 32.9 60.4 32.9 60.4 32.9 60.4 32.9 60.4 32.9 60.4 32.9 60.4 32.9 60.4 32.9 60.4 32.9 60.4 32.9 60.4 32.9 60.4 32.9 60.4 32.9 60.4 32.9 60.4 32.9 60.4 32.9 60.4 32.9 60.4 32.9 60.4 32.9 60.4 32.9 60.4 32.9 60.4 32.9 60.4 32.9 60.4 32.9 60.4 32.9 60.4 32.9 60.4 32.9 60.4 32.9 60.4 32.9 60.4 32.9 60.4 32.9 60.4 32.9 60.4 32.9 60.4 32.9 60.4 32.9 60.4 32.9 60.4 32.9 60.4 32.9 60.4 32.9 60.4 32.9 60.4 32.9 60.4 32.9 60.4 32.9 60.4 32.9 60.4 32.9 60.4 32.9 60.4 32.9 60.4 32.9 60.4 32.9 60.4 32.9 60.4 32.9 60.4 32.9 60.4 32.9 60.4 32.9 60.4 32.9 60.4 32.9 60.4 32.9 60.4 32.9 60.4 32.9 60.4 32.9 60.4 32.9 60.4 32.9 60.4 32.9 60.4 32.9 60.4 32.9 60.4 32.9 60.4 32.9 60.4 32.9 60.4 32.9 60.4 32.9 60.4 32.9 60.4 32.9 60.4 32.9 60.4 32.9 60.4 32.9 60.4 32.9 60.4 32.9 60.4 32.9 60.4 32.9 60.4 32.9 60.4 32.9 60.4 32.9 60.4 32.9 60.4 32.9 60.4 32.9 60.4 32.9 60.4 32.9 60.4 32.9 60.4 32.9 60.4 32.9 60.4 32.9 60.4 32.9 60.4 32.9 60.4 32.9 60.4 32.9 60.4 32.9 60.4 32.9 60.4 32.9 60.4 32.9 60.4 32.9 60.4 32.9 60.4 32.9 60.4 32.9 60.4 32.9 60.4 32.9 60.4 32.9 60.4 32.9 60.4 32.9 60.4 32.9 60.4 32.9 60.4 32.9 60.4 32.9 60.4 32.9 60.4 33 60.4 33 60.4 33 60.4 33 60.4 33 60.4 33 60.4 33 60.4 33 60.4 33 60.4 33 60.4 33 60.4 33 60.4 33 60.4 33 60.4 33 60.4 33 60.4 33 60.4 33 60.4 33 60.4 33 60.4 33 60.4 33 60.4 33 60.4 33 60.4 33 60.4 33 60.4 33 60.4 33 60.4 33 60.4 33 60.4 33 60.4 33 60.4 33 60.4 33 60.4 33 60.4 33 60.4 33 60.4 33 60.4 33 60.4 33 60.4 33 60.4 33 60.4 33 60.4 33 60.4 33 60.4 33 60.4 33 60.4 33 60.4 33 60.4 33 60.4 33 60.4 33 60.4 33 60.4 33 60.4 33 60.4 33 60.4 33 60.4 33 60.4 33 60.4 33 60.4 33 60.4 33 60.4 33 60.4 33 60.4 33 60.4 33 60.4 33 60.4 33 60.4 33 60.4 33 60.4 33 60.4 33 60.4 33 60.4 33 60.4 33 60.4 33 60.4 33 60.4 33 60.4 33 60.4 33 60.4 33 60.4 33 60.4 33 60.4 33 60.4 33 60.4 33 60.4 33 60.4 33 60.4 33 60.4 33 60.4 33 60.4 33 60.4 33 60.4 33 60.4 33 60.4 33 60.4 33 60.4 33 60.4 33 60.4 33 60.4 33 60.4 33 60.4 33 60.4 33 60.4 33 60.4 33 60.4 33 60.4 33 60.4 33 60.4 33 60.4 33 60.4 33 60.4 33 60.4 33 60.4 33 60.4 33 60.4 33 60.4 33 60.4 33 60.4 33 60.4 33 60.4 33 60.4 33 60.4 33 60.4 33 60.4 33 60.4 33 60.4 33 60.4 33 60.4 33 60.4 33 60.4 33 60.4 33 60.4 33 60.4 33 60.4 33 60.4 33 60.4 33 60.4 33 60.4 33 60.4 33 60.4 33 60.4 33 60.4 33 60.4 33 60.4 33 60.4 33 60.4 33 60.4 33 60.4 33 60.4 33 60.4 33 60.4 33 60.4 33 60.4 33 60.4 33 60.4 33 60.4 33 60.4 33 60.4 33 60.4 33 60.4 33 60.4 33 60.4 33 60.4 33 60.4 33 60.4 33 60.4 33 60.4 33 60.4 33 60.4 33 60.4 33 60.4 33 60.4 33 60.4 33 60.4 33 60.4 33 60.4 33 60.4 33 60.4 33 60.4 33 60.4 33 60.4 33 60.4 33 60.4 33 60.4 33 60.4 33 60.4 33 60.4 33 60.4 33 60.4 33 60.4 33 60.4 33 60.4 33 60.4 33 60.4 33 60.4 33 60.4 33 60.4 33 60.4 33 60.4 33 60.4 33 60.4 33 60.4 33 60.4 33 60.4 33 60.4 33 60.4 33 60.4 33 60.4 33 60.4 33 60.4 33 60.4 33 60.4 33 60.4 33 60.4 33 60.4 33 60.4 33 60.4 33 60.4 33 60.4 33 60.4 33 60.4 33 60.4 33 60.4 33 60.4 33 60.4 33 60.4 33 60.4 33 60.4 33 60.4 33 60.4 33 60.4 33 60.4 33 60.4 33 60.4 33 60.4 33 60.4 33 60.4 33 60.4 33 60.4 33 60.4 33 60.4 33 60.4 33 60.4 33 60.4 33 60.4 33 60.4 33 60.4 33 60.4 33 60.4 33 60.4 33 60.4 33 60.4 33 60.4 33 60.4 33 60.4 33 60.4 33 60.4 33 60.4 33 60.4 33 60.4 33 60.4 33 60.4 33 60.4 33 60.4 33 60.4 33 60.4 33 60.4 33 60.4 33 60.4 33 60.4 33 60.4 33 60.4 33 60.4 33 60.4 33 60.4 33 60.4 33 60.4 33 60.4 33 60.4 33 60.4 33 60.4 33 60.4 33 60.4 33 60.4 33 60.4 33 60.4 33 60.4 33 60.4 33 60.4 33 60.4 33 60.4 33 60.4 33 60.4 33 60.4 33 60.4 33 60.4 33 60.4 33 60.4 33 60.4 33 60.4 33 60.4 33 60.4 33 60.4 33 60.4 33 60.4 33 60.4 33 60.4 33 60.4 33 60.4 33 60.4 33 60.4 33 60.4 33 60.4 33 60.4 33 60.4 33 60.4 33 60.4 33 60.4 33 60.4 33 60.4 33 60.4 33 60.4 33 60.4 33 60.4 33 60.4 33 60.4 33 60.4 33 60.4 33 60.4 33 60.4 33 60.4 33 60.4 33 60.4 33 60.4 33 60.4 33 60.4 33 60.4 33 60.4 33 60.4 33 60.4 33 60.4 33 60.4 33 60.4 33 60.4 33 60.4 33 60.4 33 60.4 33 60.4 33 60.4 33 60.4 33 60.4 33 60.4 33 60.4 33 60.4 33 60.4 33 60.4 33 60.4 33 60.4 33 60.4 33 60.4 33 60.4 33 60.4 33 60.4 33 60.4 33 60.4 33 60.4 33 60.4 33 60.4 33 60.4 33 60.4 33 60.4 33 60.4 33 60.4 33 60.4 33 60.4 33 60.4 33 60.4 33 60.4 33 60.4 33 60.4 33 60.4 33 60.4 33 60.4 33 60.4 33 60.4 33 60.4 33 60.4 33 60.4 33 60.4 33 60.4 33 60.4 33 60.4 33 60.4 33 60.4 33 60.4 33 60.4 33 60.4 33 60.4 33 60.4 33 60.4 33 60.4 33 60.4 33 60.4 33 60.4 33 60.4 33 60.4 33 60.4 33 60.4 33 60.4 33 60.4 33 60.4 33 60.4 33 60.4 33 60.4 33 60.4 33 60.4 33 60.4 33 60.4 33 60.4 33 60.4 33 60.4 33 60.4 33 60.4 33 60.4 33 60.4 33 60.4 33 60.4 33 60.4 33 60.4 33 60.4 33 60.4 33 60.4 33 60.4 33 60.4 33 60.4 33 60.4 33 60.4 33 60.4 33 60.4 33 60.4 33 60.4 33 60.4 33 60.4 33 60.4 33 60.4 33 60.4 33 60.4 33 60.4 33 60.4 33 60.4 33 60.4 33 60.4 33 60.4 33 60.4 33 60.4 33 60.4 33 60.4 33 60.4 33 60.4 33 60.4 33 60.4 33 60.4 33 60.4 33 60.4 33 60.4 33 60.4 33 60.4 33 60.4 33 60.4 33 60.4 33 60.4 33 60.4 33 60.4 33 60.4 33 60.4 33 60.4 33 60.4 33 60.4 33 60.4 33 60.4 33 60.4 33 60.4 33 60.4 33 60.4 33 60.4 33 60.4 33 60.4 33 60.4 33 60.4 33 60.4 33 60.4 33 60.4 33 60.4 33 60.4 33 60.4 33 60.4 33 60.4 33 60.4 33 60.4 33 60.4 33 60.4 33 60.4 33 60.4 33 60.4 33 60.4 33 60.4 33 60.4 33 60.4 33 60.4 33 60.4 33 60.4 33 60.4 33 60.4 33 60.4 33 60.4 33 60.4 33 60.4 33 60.4 33 60.4 33 60.4 33 60.4 33 60.4 33 60.4 33 60.4 33 60.4 33 60.4 33 60.4 33 60.4 33 60.4 33 60.4 33 60.4 33 60.4 33.1 60.4 33.1 60.4 33.1 60.4 33.1 60.4 33.1 60.4 33.1 60.4 33.1 60.4 33.1 60.4 33.1 60.4 33.1 60.4 33.1 60.4 33.1 60.4 33.1 60.4 33.1 60.4 33.1 60.4 33.1 60.4 33.1 60.4 33.1 60.4 33.1 60.4 33.1 60.4 33.1 60.4 33.1 60.4 33.1 60.4 33.1 60.4 33.1 60.4 33.1 60.4 33.1 60.4 33.1 60.4 33.1 60.4 33.1 60.4 33.1 60.4 33.1 60.4 33.1 60.4 33.1 60.4 33.1 60.4 33.1 60.4 33.1 60.4 33.1 60.4 33.1 60.4 33.1 60.4 33.1 60.4 33.1 60.4 33.1 60.4 33.1 60.4 33.1 60.4 33.1 60.4 33.1 60.4 33.1 60.4 33.1 60.4 33.1 60.4 33.1 60.4 33.1 60.4 33.1 60.4 33.1 60.4 33.1 60.4 33.1 60.4 33.1 60.4 33.1 60.4 33.1 60.4 33.1 60.4 33.1 60.4 33.1 60.4 33.1 60.4 33.1 60.4 33.1 60.4 33.1 60.4 33.1 60.4 33.1 60.4 33.1 60.4 33.1 60.4 33.1 60.4 33.1 60.4 33.1 60.4 33.1 60.4 33.1 60.4 33.1 60.4 33.1 60.4 33.1 60.4 33.1 60.4 33.1 60.4 33.1 60.4 33.1 60.4 33.1 60.4 33.1 60.4 33.1 60.4 33.1 60.4 33.1 60.4 33.1 60.4 33.1 60.4 33.1 60.4 33.1 60.4 33.1 60.4 33.1 60.4 33.1 60.4 33.1 60.4 33.1 60.4 33.1 60.4 33.1 60.4 33.1 60.4 33.1 60.4 33.1 60.4 33.1 60.4 33.1 60.4 33.1 60.4 33.1 60.4 33.1 60.4 33.1 60.4 33.1 60.4 33.1 60.4 33.1 60.4 33.1 60.4 33.1 60.4 33.1 60.4 33.1 60.4 33.1 60.4 33.1 60.4 33.1 60.4 33.1 60.4 33.1 60.4 33.1 60.4 33.1 60.4 33.1 60.4 33.1 60.4 33.1 60.4 33.1 60.4 33.1 60.4 33.1 60.4 33.1 60.4 33.1 60.4 33.1 60.4 33.1 60.4 33.1 60.4 33.1 60.4 33.1 60.4 33.1 60.4 33.1 60.4 33.1 60.4 33.1 60.4 33.1 60.4 33.1 60.4 33.1 60.4 33.1 60.4 33.1 60.4 33.1 60.4 33.1 60.4 33.1 60.4 33.1 60.4 33.1 60.4 33.1 60.4 33.1 60.4 33.1 60.4 33.1 60.4 33.1 60.4 33.1 60.4 33.1 60.4 33.1 60.4 33.1 60.4 33.1 60.4 33.1 60.4 33.1 60.4 33.1 60.4 33.1 60.4 33.1 60.4 33.1 60.4 33.1 60.4 33.1 60.4 33.1 60.4 33.1 60.4 33.1 60.4 33.1 60.4 33.1 60.4 33.1 60.4 33.1 60.4 33.1 60.4 33.1 60.4 33.1 60.4 33.1 60.4 33.1 60.4 33.1 60.4 33.1 60.4 33.1 60.4 33.1 60.4 33.1 60.4 33.1 60.4 33.1 60.4 33.1 60.4 33.1 60.4 33.1 60.4 33.1 60.4 33.1 60.4 33.1 60.4 33.1 60.4 33.1 60.4 33.1 60.4 33.1 60.4 33.1 60.4 33.1 60.4 33.1 60.4 33.1 60.4 33.1 60.4 33.1 60.4 33.1 60.4 33.1 60.4 33.1 60.4 33.1 60.4 33.1 60.4 33.1 60.4 33.1 60.4 33.1 60.4 33.1 60.4 33.1 60.4 33.1 60.4 33.1 60.4 33.1 60.4 33.1 60.4 33.1 60.4 33.1 60.4 33.1 60.4 33.1 60.4 33.1 60.4 33.1 60.4 33.1 60.4 33.1 60.4 33.1 60.4 33.1 60.4 33.1 60.4 33.1 60.4 33.1 60.4 33.1 60.4 33.1 60.4 33.1 60.4 33.1 60.4 33.1 60.4 33.1 60.4 33.1 60.4 33.1 60.4 33.1 60.4 33.1 60.4 33.1 60.4 33.1 60.4 33.1 60.4 33.1 60.4 33.1 60.4 33.1 60.4 33.1 60.4 33.1 60.4 33.1 60.4 33.1 60.4 33.1 60.4 33.1 60.4 33.1 60.4 33.1 60.4 33.1 60.4 33.1 60.4 33.1 60.4 33.1 60.4 33.1 60.4 33.1 60.4 33.1 60.4 33.1 60.4 33.1 60.4 33.1 60.4 33.1 60.4 33.1 60.4 33.1 60.4 33.1 60.4 33.1 60.4 33.1 60.4 33.1 60.4 33.1 60.4 33.1 60.4 33.1 60.4 33.1 60.4 33.1 60.4 33.1 60.4 33.1 60.4 33.1 60.4 33.1 60.4 33.1 60.4 33.1 60.4 33.1 60.4 33.1 60.4 33.1 60.4 33.1 60.4 33.1 60.4 33.1 60.4 33.1 60.4 33.1 60.4 33.1 60.4 33.1 60.4 33.1 60.4 33.1 60.4 33.1 60.4 33.1 60.4 33.1 60.4 33.1 60.4 33.1 60.4 33.1 60.4 33.1 60.4 33.1 60.4 33.1 60.4 33.1 60.4 33.1 60.4 33.1 60.4 33.1 60.4 33.1 60.4 33.1 60.4 33.1 60.4 33.1 60.4 33.1 60.4 33.1 60.4 33.1 60.4 33.1 60.4 33.1 60.4 33.1 60.4 33.1 60.4 33.1 60.4 33.1 60.4 33.1 60.4 33.1 60.4 33.1 60.4 33.1 60.4 33.1 60.4 33.1 60.4 33.1 60.4 33.1 60.4 33.1 60.4 33.1 60.4 33.1 60.4 33.1 60.4 33.1 60.4 33.1 60.4 33.1 60.4 33.1 60.4 33.1 60.4 33.1 60.4 33.1 60.4 33.1 60.4 33.1 60.4 33.1 60.4 33.1 60.4 33.1 60.4 33.1 60.4 33.1 60.4 33.1 60.4 33.1 60.4 33.1 60.4 33.1 60.4 33.1 60.4 33.1 60.4 33.1 60.4 33.1 60.4 33.1 60.4 33.1 60.4 33.1 60.4 33.1 60.4 33.1 60.4 33.1 60.4 33.1 60.4 33.1 60.4 33.1 60.4 33.1 60.4 33.1 60.4 33.1 60.4 33.1 60.4 33.1 60.4 33.1 60.4 33.1 60.4 33.1 60.4 33.1 60.4 33.1 60.4 33.1 60.4 33.1 60.4 33.1 60.4 33.1 60.4 33.1 60.4 33.1 60.4 33.1 60.4 33.1 60.4 33.1 60.4 33.1 60.4 33.1 60.4 33.1 60.4 33.1 60.4 33.1 60.4 33.1 60.4 33.1 60.4 33.1 60.4 33.1 60.4 33.1 60.4 33.1 60.4 33.1 60.4 33.1 60.4 33.1 60.4 33.1 60.4 33.1 60.4 33.1 60.4 33.1 60.4 33.1 60.4 33.1 60.4 33.1 60.4 33.1 60.4 33.1 60.4 33.1 60.4 33.1 60.4 33.1 60.4 33.1 60.4 33.1 60.4 33.1 60.4 33.1 60.4 33.1 60.4 33.1 60.4 33.1 60.4 33.1 60.4 33.1 60.4 33.1 60.4 33.1 60.4 33.1 60.4 33.1 60.4 33.1 60.4 33.1 60.4 33.1 60.4 33.1 60.4 33.1 60.4 33.1 60.4 33.1 60.4 33.1 60.4 33.1 60.4 33.1 60.4 33.1 60.4 33.1 60.4 33.1 60.4 33.1 60.4 33.1 60.4 33.1 60.4 33.1 60.4 33.1 60.4 33.1 60.4 33.1 60.4 33.1 60.4 33.1 60.4 33.1 60.4 33.1 60.4 33.1 60.4 33.1 60.4 33.1 60.4 33.1 60.4 33.1 60.4 33.1 60.4 33.1 60.4 33.1 60.4 33.1 60.4 33.1 60.4 33.1 60.4 33.1 60.4 33.1 60.4 33.1 60.4 33.1 60.4 33.1 60.4 33.1 60.4 33.1 60.4 33.1 60.4 33.1 60.4 33.1 60.4 33.1 60.4 33.1 60.4 33.1 60.4 33.1 60.4 33.1 60.4 33.1 60.4 33.1 60.4 33.1 60.4 33.1 60.4 33.1 60.4 33.1 60.4 33.1 60.4 33.1 60.4 33.1 60.4 33.1 60.4 33.1 60.4 33.1 60.4 33.1 60.4 33.1 60.4 33.1 60.4 33.1 60.4 33.1 60.4 33.1 60.4 33.1 60.4 33.1 60.4 33.1 60.4 33.1 60.4 33.1 60.4 33.1 60.4 33.1 60.4 33.1 60.4 33.1 60.4 33.1 60.4 33.1 60.4 33.1 60.4 33.1 60.4 33.1 60.4 33.1 60.4 33.1 60.4 33.1 60.4 33.1 60.4 33.1 60.4 33.1 60.4 33.1 60.4 33.1 60.4 33.1 60.4 33.1 60.4 33.1 60.4 33.1 60.4 33.1 60.4 33.1 60.4 33.1 60.4 33.1 60.4 33.1 60.4 33.1 60.4 33.1 60.4 33.1 60.4 33.1 60.4 33.1 60.4 33.1 60.4 33.1 60.4 33.1 60.4 33.1 60.4 33.1 60.4 33.1 60.4 33.1 60.4 33.1 60.4 33.1 60.4 33.1 60.4 33.1 60.4 33.2 60.4 33.2 60.4 33.2 60.4 33.2 60.4 33.2 60.4 33.2 60.4 33.2 60.4 33.2 60.4 33.2 60.4 33.2 60.4 33.2H66.4ZM65.5 35C65.3 35.2 64.6 35.7 63.7 35.7V29.7C62.5 29.7 61.7 30.3 61.2 30.7L65.5 35ZM63.7 35.7C62.7 35.7 62.1 35.2 61.8 35L66.1 30.7C65.6 30.3 64.8 29.7 63.7 29.7V35.7ZM62.6 35.5C62.6 35.6 62.6 35.5 62.5 35.5 62.5 35.5 62.4 35.4 62.3 35.3L66.5 31C66.1 30.6 65.6 30.3 65.3 30.2L62.6 35.5ZM62.1 35.1L116.6 96.2 121 92.2 66.6 31.2 62.1 35.1ZM115.8 94.2V109H121.8V94.2H115.8ZM118.8 112H120.3V106H118.8V112ZM123.3 109V31.3H117.3V109H123.3ZM120.3 28.3H118.8V34.3H120.3V28.3ZM115.8 31.3V92H121.8V31.3H115.8ZM121.1 90.1L68.1 30.4 63.6 34.4 116.6 94 121.1 90.1ZM73.6 119H52V125H73.6V119ZM52 119C50.5 119 50 118.7 50 118.6L46 123.1C47.6 124.6 49.8 125 52 125V119ZM50.2 118.9C50.1 118.8 49.8 118.3 49.8 116.8H43.8C43.8 119 44.2 121.2 45.7 122.8L50.2 118.9ZM49.8 116.8V23.5H43.8V116.8H49.8ZM49.8 23.5C49.8 22.8 49.9 22.3 50 22 50.1 21.7 50.1 21.7 50.1 21.7L45.8 17.5C44.2 19.1 43.8 21.4 43.8 23.5H49.8ZM50.1 21.7C50.2 21.7 50.6 21.3 52 21.3V15.3C49.8 15.3 47.5 15.8 45.8 17.5L50.1 21.7ZM52 21.3H67V15.3H52V21.3ZM67 21.3C68.5 21.3 69.6 21.6 70.3 21.9L72.8 16.5C71.1 15.7 69.1 15.3 67 15.3V21.3ZM70.4 21.9C71.2 22.3 72.2 23 73.2 24.2L77.7 20.2C76.3 18.6 74.6 17.2 72.8 16.4L70.4 21.9ZM73.2 24.2L101.1 56.2 105.7 52.2 77.7 20.2 73.2 24.2ZM106.4 54.2V23.5H100.4V54.2H106.4ZM106.4 23.5C106.4 22.8 106.5 22.3 106.6 22 106.7 21.7 106.7 21.7 106.7 21.7L102.4 17.5C100.8 19.1 100.4 21.4 100.4 23.5H106.4ZM106.7 21.7C106.8 21.7 107.2 21.3 108.6 21.3V15.3C106.4 15.3 104.1 15.8 102.4 17.5L106.7 21.7ZM108.6 21.3H130.2V15.3H108.6V21.3ZM130.2 21.3C131.6 21.3 131.9 21.7 131.8 21.6L136.3 17.6C134.7 15.8 132.4 15.3 130.2 15.3V21.3ZM132.1 21.9C132 21.8 132.4 22 132.4 23.5H138.4C138.4 21.3 137.9 19 136.1 17.4L132.1 21.9ZM132.4 23.5V116.8H138.4V23.5H132.4ZM132.4 116.8C132.4 118.2 132 118.7 132 118.7L136.2 123C137.8 121.3 138.4 119 138.4 116.8H132.4ZM132 118.7C132 118.7 132 118.8 131.7 118.8 131.4 118.9 130.9 119 130.2 119V125C132.3 125 134.6 124.6 136.2 123L132 118.7ZM130.2 119H108.6V125H130.2V119ZM108.6 119C107.1 119 106.6 118.7 106.5 118.6L102.6 123.1C104.2 124.6 106.4 125 108.6 125V119ZM106.8 118.9C106.7 118.8 106.4 118.3 106.4 116.8H100.4C100.4 119 100.8 121.2 102.3 122.8L106.8 118.9ZM106.4 116.8V99.1H100.4V116.8H106.4ZM105.7 97.2L81.1 67.4 76.5 71.2 101.1 101 105.7 97.2ZM75.8 69.3V116.8H81.8V69.3H75.8ZM75.8 116.8C75.8 118.2 75.4 118.7 75.4 118.7L79.6 123C81.3 121.3 81.8 119 81.8 116.8H75.8ZM75.4 118.7C75.4 118.7 75.4 118.8 75.1 118.8 74.8 118.9 74.3 119 73.6 119V125C75.7 125 78 124.6 79.6 123L75.4 118.7Z" class="b"/><path d="M58.9 108H35.6C33.7 108 32.4 107.6 31.5 106.8 30.8 106 30.4 104.6 30.4 102.8V32.1H9.2C7.4 32.1 6 31.7 5.2 31 4.4 30.1 4 28.8 4 26.9V9.5C4 7.7 4.4 6.4 5.2 5.6 6 4.8 7.4 4.3 9.2 4.3H85.2C87.1 4.3 88.4 4.8 89.1 5.6 90 6.4 90.4 7.7 90.4 9.5V26.9C90.4 28.8 90 30.1 89.1 31 88.4 31.7 87.1 32.1 85.2 32.1H64.1V102.8C64.1 104.6 63.6 106 62.8 106.8 62 107.6 60.7 108 58.9 108ZM46.5 95H48V18.7H77.5V17.3H17V18.7H46.5V95Z" class="a"/><path d="M31.5 106.8L29.3 108.8 29.4 109 29.5 109.1 31.5 106.8ZM30.4 32.1H33.4V29.1H30.4V32.1ZM5.2 31L2.9 33 3.1 33.1 3.2 33.2 5.2 31ZM5.2 5.6L3.1 3.5 3.1 3.5 5.2 5.6ZM89.1 5.6L86.9 7.6 87 7.7 87.1 7.9 89.1 5.6ZM64.1 32.1V29.1H61.1V32.1H64.1ZM62.8 106.8L60.7 104.7 60.7 104.7 62.8 106.8ZM46.5 95H43.5V98H46.5V95ZM48 95V98H51V95H48ZM48 18.7V15.7H45V18.7H48ZM77.5 18.7V21.7H80.5V18.7H77.5ZM77.5 17.3H80.5V14.3H77.5V17.3ZM17 17.3V14.3H14V17.3H17ZM17 18.7H14V21.7H17V18.7ZM46.5 18.7H49.5V15.7H46.5V18.7ZM58.9 105H35.6V111H58.9V105ZM35.6 105C34.1 105 33.6 104.7 33.5 104.6L29.5 109.1C31.2 110.6 33.4 111 35.6 111V105ZM33.8 104.9C33.7 104.8 33.4 104.3 33.4 102.8H27.4C27.4 105 27.8 107.2 29.3 108.8L33.8 104.9ZM33.4 102.8V32.1H27.4V102.8H33.4ZM30.4 29.1H9.2V35.1H30.4V29.1ZM9.2 29.1C7.7 29.1 7.3 28.8 7.2 28.7L3.2 33.2C4.8 34.7 7.1 35.1 9.2 35.1V29.1ZM7.4 29C7.4 28.9 7 28.4 7 26.9H1C1 29.1 1.5 31.3 2.9 33L7.4 29ZM7 26.9V9.5H1V26.9H7ZM7 9.5C7 8.8 7.1 8.3 7.2 8 7.3 7.7 7.4 7.7 7.3 7.7L3.1 3.5C1.5 5.1 1 7.4 1 9.5H7ZM7.3 7.7C7.4 7.7 7.8 7.3 9.2 7.3V1.3C7 1.3 4.7 1.8 3.1 3.5L7.3 7.7ZM9.2 7.3H85.2V1.3H9.2V7.3ZM85.2 7.3C86.7 7.3 87 7.7 86.9 7.6L91.4 3.6C89.8 1.8 87.4 1.3 85.2 1.3V7.3ZM87.1 7.9C87.1 7.8 87.4 8 87.4 9.5H93.4C93.4 7.3 92.9 5 91.1 3.4L87.1 7.9ZM87.4 9.5V26.9H93.4V9.5H87.4ZM87.4 26.9C87.4 28.3 87.1 28.8 87 28.8L91.3 33.1C92.9 31.4 93.4 29.2 93.4 26.9H87.4ZM87 28.8C87.1 28.8 87 28.9 86.7 28.9 86.4 29 86 29.1 85.2 29.1V35.1C87.4 35.1 89.6 34.7 91.3 33.1L87 28.8ZM85.2 29.1H64.1V35.1H85.2V29.1ZM61.1 32.1V102.8H67.1V32.1H61.1ZM61.1 102.8C61.1 104.2 60.7 104.7 60.7 104.7L64.9 109C66.6 107.3 67.1 105 67.1 102.8H61.1ZM60.7 104.7C60.7 104.7 60.7 104.8 60.4 104.8 60.1 104.9 59.6 105 58.9 105V111C61 111 63.3 110.6 64.9 109L60.7 104.7ZM46.5 98H48V92H46.5V98ZM51 95V18.7H45V95H51ZM48 21.7H77.5V15.7H48V21.7ZM80.5 18.7V17.3H74.5V18.7H80.5ZM77.5 14.3H17V20.3H77.5V14.3ZM14 17.3V18.7H20V17.3H14ZM17 21.7H46.5V15.7H17V21.7ZM43.5 18.7V95H49.5V18.7H43.5Z" class="b"/></svg>